<?xml version="1.0" encoding="UTF-8" standalone="no"?>
<!-- Created with Inkscape (http://www.inkscape.org/) -->
<svg
   xmlns:dc="http://purl.org/dc/elements/1.1/"
   xmlns:cc="http://creativecommons.org/ns#"
   xmlns:rdf="http://www.w3.org/1999/02/22-rdf-syntax-ns#"
   xmlns:svg="http://www.w3.org/2000/svg"
   xmlns="http://www.w3.org/2000/svg"
   xmlns:sodipodi="http://sodipodi.sourceforge.net/DTD/sodipodi-0.dtd"
   xmlns:inkscape="http://www.inkscape.org/namespaces/inkscape"
   version="1.0"
   width="1024"
   height="768"
   id="svg3305"
   sodipodi:version="0.32"
   inkscape:version="0.46"
   sodipodi:docname="Nick-logo.svg"
   inkscape:output_extension="org.inkscape.output.svg.inkscape">
  <metadata
     id="metadata48">
    <rdf:RDF>
      <cc:Work
         rdf:about="">
        <dc:format>image/svg+xml</dc:format>
        <dc:type
           rdf:resource="http://purl.org/dc/dcmitype/StillImage" />
      </cc:Work>
    </rdf:RDF>
  </metadata>
  <sodipodi:namedview
     inkscape:window-height="718"
     inkscape:window-width="1024"
     inkscape:pageshadow="2"
     inkscape:pageopacity="0.0"
     guidetolerance="10.0"
     gridtolerance="10.0"
     objecttolerance="10.0"
     borderopacity="1.0"
     bordercolor="#666666"
     pagecolor="#ffffff"
     id="base"
     showgrid="false"
     showguides="true"
     inkscape:guide-bbox="true"
     inkscape:zoom="0.54280662"
     inkscape:cx="860.27141"
     inkscape:cy="346.57717"
     inkscape:window-x="-8"
     inkscape:window-y="-8"
     inkscape:current-layer="svg3305" />
  <defs
     id="defs3307">
    <inkscape:perspective
       sodipodi:type="inkscape:persp3d"
       inkscape:vp_x="0 : 262.08734 : 1"
       inkscape:vp_y="0 : 1000 : 0"
       inkscape:vp_z="708.66138 : 262.08734 : 1"
       inkscape:persp3d-origin="354.33069 : 174.72489 : 1"
       id="perspective50" />
    <clipPath
       id="clp3">
      <path
         d="M 700.97,32.332 L 773.67,32.332 L 773.67,83.732 L 700.97,83.732 L 700.97,32.332 z"
         id="path2933" />
    </clipPath>
    <clipPath
       id="clipPath3316">
      <path
         d="M 700.97,32.332 L 773.67,32.332 L 773.67,83.732 L 700.97,83.732 L 700.97,32.332 z"
         id="path3318" />
    </clipPath>
  </defs>
  <g
     id="g3373"
     transform="matrix(1.4375,0,0,1.4375,2.0000069,7.9999978)">
    <g
       style="fill:#f47e20;fill-opacity:1"
       id="g2538">
      <g
         id="q103"
         style="fill:#f47e20;fill-opacity:1;stroke:none"
         transform="matrix(12.87539,0,0,-12.87539,-9118.6618,1007.7327)">
        <g
           style="fill:#f47e20;fill-opacity:1"
           id="xfrm104"
           transform="translate(755.2165,46.2923)">
          <path
             id="path2939"
             style="fill:#f47e20;fill-opacity:1;fill-rule:nonzero;stroke:none"
             d="M 0,0 C 0,0 -0.287,0.126 -0.821,0.305 C -1.355,0.481 -1.663,0.581 -1.81,0.667 C -1.955,0.756 -2.037,0.996 -2.098,1.066 C -2.163,1.135 -2.324,1.369 -2.324,1.369 C -2.324,1.369 -2.155,1.307 -1.552,1.236 C -0.947,1.162 -0.905,1.266 -0.905,1.266 L -0.666,1.533 C -0.666,1.533 -0.34,1.288 -0.216,1.15 C -0.091,1.01 0.189,0.688 0.225,0.616 C 0.26,0.544 0,0 0,0" />
        </g>
      </g>
      <g
         id="q105"
         style="fill:#f47e20;fill-opacity:1;stroke:none"
         transform="matrix(12.87539,0,0,-12.87539,-9118.6618,1007.7327)">
        <g
           style="fill:#f47e20;fill-opacity:1"
           id="xfrm106"
           transform="translate(756.1497,45.7023)">
          <path
             id="path2943"
             style="fill:#f47e20;fill-opacity:1;fill-rule:nonzero;stroke:none"
             d="M 0,0 C 0,0 1.193,-0.719 1.498,-0.794 C 1.804,-0.866 3.281,-1.461 3.528,-1.74 C 3.779,-2.016 5.583,-2.657 5.963,-2.676 C 6.343,-2.693 6.459,-2.759 6.771,-2.41 C 7.082,-2.06 7.211,-2.247 7.035,-1.889 C 6.858,-1.534 6.785,-1.141 5.915,-0.868 C 5.045,-0.594 4.935,-0.578 4.253,-0.537 C 3.573,-0.495 3.248,-0.496 2.583,-0.354 C 1.918,-0.212 1.906,-0.113 1.434,-0.004 C 0.962,0.105 0.788,0.189 0.542,0.219 C 0.296,0.247 -0.015,0.344 -0.107,0.213 C -0.199,0.08 0,0 0,0" />
        </g>
      </g>
      <g
         id="q107"
         style="fill:#f47e20;fill-opacity:1;stroke:none"
         transform="matrix(12.87539,0,0,-12.87539,-9118.6618,1007.7327)">
        <g
           style="fill:#f47e20;fill-opacity:1"
           id="xfrm108"
           transform="translate(751.4344,70.4484)">
          <path
             id="path2947"
             style="fill:#f47e20;fill-opacity:1;fill-rule:nonzero;stroke:none"
             d="M 0,0 C 0,0 -0.161,-0.121 -0.471,-0.309 C -0.779,-0.496 -0.959,-0.602 -1.037,-0.678 C -1.115,-0.755 -1.134,-0.931 -1.16,-0.985 C -1.19,-1.04 -1.259,-1.22 -1.259,-1.22 C -1.259,-1.22 -1.161,-1.157 -0.793,-1.033 C -0.426,-0.91 -0.385,-0.973 -0.385,-0.973 L -0.194,-1.128 C -0.194,-1.128 -0.027,-0.92 0.031,-0.811 C 0.089,-0.701 0.219,-0.446 0.232,-0.392 C 0.243,-0.339 0,0 0,0" />
        </g>
      </g>
      <g
         id="q109"
         style="fill:#f47e20;fill-opacity:1;stroke:none"
         transform="matrix(12.87539,0,0,-12.87539,-9118.6618,1007.7327)">
        <g
           style="fill:#f47e20;fill-opacity:1"
           id="xfrm110"
           transform="translate(753.5904,71.6824)">
          <path
             id="path2951"
             style="fill:#f47e20;fill-opacity:1;fill-rule:nonzero;stroke:none"
             d="M 0,0 C 0,0 0.789,0.446 0.986,0.484 C 1.185,0.522 2.149,0.871 2.316,1.053 C 2.486,1.234 3.663,1.601 3.906,1.597 C 4.148,1.592 4.225,1.63 4.409,1.374 C 4.594,1.117 4.683,1.242 4.558,1.001 C 4.432,0.76 4.371,0.491 3.806,0.341 C 3.239,0.187 3.169,0.18 2.733,0.181 C 2.298,0.183 2.092,0.2 1.662,0.13 C 1.23,0.06 1.22,-0.008 0.914,-0.061 C 0.609,-0.117 0.497,-0.169 0.339,-0.177 C 0.181,-0.186 -0.021,-0.241 -0.075,-0.146 C -0.129,-0.05 0,0 0,0" />
        </g>
      </g>
      <g
         id="q111"
         style="fill:#f47e20;fill-opacity:1;stroke:none"
         transform="matrix(12.87539,0,0,-12.87539,-9118.6618,1007.7327)">
        <g
           style="fill:#f47e20;fill-opacity:1"
           id="xfrm112"
           transform="translate(746.3931,46.8252)">
          <path
             id="path2955"
             style="fill:#f47e20;fill-opacity:1;fill-rule:nonzero;stroke:none"
             d="M 0,0 C -0.093,-0.027 -0.426,-0.187 -0.331,-0.382 C -0.235,-0.576 0.065,-0.767 0.274,-0.935 C 0.483,-1.102 0.911,-1.546 1.035,-1.614 C 1.161,-1.68 1.732,-2.177 2.07,-2.577 C 2.409,-2.979 2.705,-3.228 3.101,-3.169 C 3.498,-3.109 4.013,-2.947 3.725,-2.625 C 3.435,-2.302 3.156,-2.297 2.399,-1.785 C 1.642,-1.275 1.595,-1.401 1.226,-1.127 C 0.859,-0.854 0.521,-0.657 0.425,-0.482 C 0.328,-0.306 0,0 0,0" />
        </g>
      </g>
      <g
         id="q113"
         style="fill:#f47e20;fill-opacity:1;stroke:none"
         transform="matrix(12.87539,0,0,-12.87539,-9118.6618,1007.7327)">
        <g
           style="fill:#f47e20;fill-opacity:1"
           id="xfrm114"
           transform="translate(750.9324,48.8329)">
          <path
             id="path2959"
             style="fill:#f47e20;fill-opacity:1;fill-rule:nonzero;stroke:none"
             d="M 0,0 C 0,0 -1.005,0.668 -1.366,0.852 C -1.726,1.038 -3.055,1.733 -3.306,1.994 C -3.559,2.255 -3.98,2.72 -4.079,3.193 C -4.379,4.666 -2.892,6.093 -2.433,7.39 C -1.821,9.12 -3.191,10.23 -3.048,11.898 C -2.989,12.603 -2.826,13.297 -2.753,14.002 C -2.695,14.564 -3.258,15.595 -3.375,16.128 C -3.637,17.325 -2.606,18.002 -1.822,18.823 C -1.519,19.141 -1.315,19.909 -1.845,20.16 C -2.281,20.367 -3.003,19.866 -3.326,19.625 C -4.473,18.767 -5.153,17.629 -6.233,16.82 C -6.298,16.829 -6.359,16.84 -6.425,16.848 C -6.746,17.286 -6.348,17.983 -6.679,18.414 C -6.692,18.57 -7.283,18.67 -7.637,18.374 C -7.842,18.254 -8.679,17.886 -8.856,18.032 C -9.337,18.376 -9.893,18.74 -9.821,19.712 C -9.728,20.5 -9.696,21.344 -9.352,22.067 C -9.36,22.396 -9.473,22.649 -9.696,22.585 C -9.922,22.462 -10.19,22.275 -10.192,21.886 C -10.055,21.329 -10.363,20.896 -10.674,20.541 C -11.06,20.132 -11.377,20.28 -11.495,20.741 C -11.982,21.024 -11.945,21.875 -11.897,22.621 C -11.953,22.676 -12.059,22.651 -12.054,22.792 C -11.889,23.022 -12.265,22.901 -12.102,23.135 C -12.139,23.546 -12.421,23.633 -12.652,23.78 C -14.595,25.016 -16.221,23.256 -16.423,21.387 C -16.532,21.4 -16.635,21.436 -16.718,21.52 C -16.967,21.769 -16.778,21.796 -17.374,21.867 C -17.97,21.938 -18.221,22.169 -18.578,22.116 C -18.936,22.063 -19.43,21.875 -19.794,21.741 C -20.159,21.606 -20.208,21.756 -20.336,21.476 C -20.464,21.197 -20.529,20.683 -20.963,20.699 C -21.399,20.715 -21.555,21.06 -21.836,21.417 C -22.118,21.774 -22.499,21.929 -22.548,22.079 C -22.598,22.229 -22.563,22.393 -22.554,22.746 C -22.544,23.097 -22.623,23.394 -22.523,23.594 C -22.422,23.792 -22.394,23.895 -22.508,24.257 C -22.622,24.62 -22.75,25.068 -22.673,25.496 C -22.593,25.926 -22.433,26.12 -22.763,26.377 C -23.094,26.633 -23.441,26.555 -23.441,26.555 C -23.441,26.555 -24.204,26.406 -24.337,26.096 C -24.469,25.786 -24.39,25.459 -24.223,24.912 C -24.057,24.362 -23.784,23.806 -23.784,23.806 L -23.902,22.426 C -23.902,22.426 -24.458,22.153 -25.026,21.774 L -25.592,21.394 C -25.592,21.394 -26.554,19.477 -27.145,19.292 C -28.059,19.575 -29.074,18.934 -28.852,18.47 C -28.521,18.269 -28.483,17.943 -28.483,17.625 C -28.724,17.51 -28.981,17.434 -29.244,17.431 C -30.315,17.415 -32.018,17.201 -32.638,16.186 C -32.703,16.077 -32.775,15.976 -32.847,15.876 C -33.422,16.345 -32.819,16.28 -33.521,16.047 C -33.755,15.97 -34.639,17.212 -34.869,17.408 C -35.435,17.886 -36.29,18.563 -37.046,18.655 C -38.072,18.78 -39.345,17.532 -38.747,16.396 C -38.343,15.628 -37.613,16.39 -36.895,16.08 C -35.233,15.36 -35.297,13.499 -34.941,12.093 C -34.746,11.325 -34.166,10.65 -34.164,9.882 C -34.165,9.654 -34.213,9.42 -34.34,9.171 C -34.851,8.163 -35.749,7.763 -35.848,6.499 C -35.952,5.201 -35.3,4.118 -34.675,3.091 C -34.093,2.134 -34.175,0.886 -33.54,-0.016 C -32.826,-1.03 -31.367,-1.842 -30.876,-2.95 C -29.948,-5.051 -29.701,-3.082 -31.485,-6.321 C -31.991,-7.24 -32.461,-7.733 -32.461,-7.733 C -32.461,-7.733 -33.631,-8.916 -33.394,-9.898 C -33.157,-10.881 -32.238,-11.386 -31.265,-11.256 C -30.291,-11.125 -29.731,-9.568 -29.731,-9.568 C -29.731,-9.568 -29.55,-7.448 -29.629,-7.12 C -29.707,-6.793 -29.75,-6.041 -29.75,-6.041 L -29.369,-5.325 C -29.369,-5.325 -28.704,-5.06 -28.466,-4.76 C -28.227,-4.461 -27.863,-3.957 -27.863,-3.957 C -27.863,-3.957 -27.154,-3.163 -26.836,-3.19 C -26.518,-3.217 -25.951,-2.837 -25.951,-2.837 L -25.356,-2.14 C -25.356,-2.14 -24.595,-1.992 -23.986,-2.364 C -23.376,-2.737 -23.076,-2.977 -22.642,-2.906 C -22.209,-2.836 -21.245,-2.811 -21.245,-2.811 C -21.245,-2.811 -20.9,-2.52 -20.485,-2.662 C -20.069,-2.804 -19.548,-2.955 -19.266,-3.407 C -19.25,-3.433 -19.232,-3.466 -19.216,-3.502 C -19.211,-3.514 -19.207,-3.526 -19.201,-3.538 C -19.19,-3.567 -19.177,-3.597 -19.166,-3.63 C -19.16,-3.644 -19.154,-3.659 -19.149,-3.674 C -19.135,-3.714 -19.122,-3.754 -19.108,-3.797 C -19.104,-3.809 -19.101,-3.818 -19.096,-3.83 C -19.079,-3.885 -19.061,-3.944 -19.042,-4.007 C -19.039,-4.022 -19.034,-4.038 -19.029,-4.053 C -19.015,-4.104 -19,-4.155 -18.986,-4.207 C -18.979,-4.229 -18.974,-4.251 -18.967,-4.271 C -18.953,-4.325 -18.938,-4.379 -18.922,-4.434 C -18.898,-4.521 -18.875,-4.608 -18.848,-4.705 C -18.83,-4.776 -18.809,-4.848 -18.79,-4.919 C -18.783,-4.938 -18.778,-4.959 -18.773,-4.978 C -18.756,-5.037 -18.74,-5.093 -18.723,-5.151 C -18.717,-5.173 -18.711,-5.192 -18.704,-5.214 C -18.685,-5.281 -18.665,-5.347 -18.645,-5.412 C -18.643,-5.421 -18.64,-5.428 -18.637,-5.436 C -18.614,-5.511 -18.59,-5.582 -18.567,-5.652 C -18.562,-5.665 -18.557,-5.676 -18.554,-5.689 C -18.533,-5.745 -18.514,-5.799 -18.495,-5.851 C -18.486,-5.869 -18.48,-5.886 -18.474,-5.903 C -18.466,-5.923 -18.46,-5.943 -18.45,-5.962 C -18.353,-6.198 -18.251,-6.392 -18.139,-6.496 C -17.645,-6.967 -16.823,-7.357 -16.187,-7.411 C -15.551,-7.467 -15.118,-7.397 -14.301,-6.61 C -13.487,-5.826 -13.654,-5.277 -13.113,-5.217 C -12.573,-5.155 -12.237,-4.971 -11.512,-5.245 C -10.789,-5.522 -9.348,-6.178 -9.065,-6.63 C -8.784,-7.081 -8.359,-7.117 -8.359,-7.117 C -8.359,-7.117 -7.766,-6.421 -8.357,-5.835 C -8.949,-5.25 -10.485,-4.479 -10.317,-3.743 C -10.148,-3.01 -9.765,-2.296 -9.198,-1.917 C -8.631,-1.536 -8.295,-1.352 -7.738,-1.078 C -7.18,-0.806 -6.728,-0.524 -6.728,-0.524 L -6.031,-1.117 L -5.2,-1.402 C -5.2,-1.402 -4.767,-1.333 -5.242,-0.651 C -5.718,0.032 -5.542,-0.41 -5.904,0.368 L -6.264,1.148 C -6.264,1.148 -4.531,1.426 -4,1.381 C -3.47,1.335 -2.745,1.061 -2.745,1.061 L -1.739,0.334 L -0.935,-0.269 C -0.935,-0.269 -0.883,-0.916 -0.343,-0.855 C -0.343,-0.855 0.048,-1.051 0.204,-1.045 C 0.358,-1.042 0.779,-0.735 0.779,-0.735 L 0,0 z" />
        </g>
      </g>
      <g
         id="q115"
         style="fill:#f47e20;fill-opacity:1;stroke:none"
         transform="matrix(12.87539,0,0,-12.87539,-9118.6618,1007.7327)">
        <g
           style="fill:#f47e20;fill-opacity:1"
           id="xfrm116"
           transform="translate(739.5006,73.9745)">
          <path
             id="path2963"
             style="fill:#f47e20;fill-opacity:1;fill-rule:nonzero;stroke:none"
             d="M 0,0 C 0.245,-0.124 0.677,0.066 1.012,0.098 C 1.47,0.382 1.734,0.98 2.125,1.168 C 2.159,1.578 2.618,1.563 2.737,1.952 C 3.083,3.02 2.92,3.855 2.277,4.263 C 1.583,4.406 0.495,4.048 -0.317,3.195 C -0.838,2.596 -0.752,2.063 -0.861,1.457 C -0.85,0.737 -0.383,0.427 0,0" />
        </g>
      </g>
      <g
         id="q117"
         style="fill:#f47e20;fill-opacity:1;stroke:none"
         transform="matrix(12.87539,0,0,-12.87539,-9118.6618,1007.7327)">
        <g
           style="fill:#f47e20;fill-opacity:1"
           id="xfrm118"
           transform="translate(710.8986,69.5469)">
          <path
             id="path2967"
             style="fill:#f47e20;fill-opacity:1;fill-rule:nonzero;stroke:none"
             d="M 0,0 C 0,0 -0.46,0.367 -0.74,0.431 C -1.021,0.496 -1.471,0.494 -1.676,0.471 C -1.883,0.447 -2.213,-0.056 -2.223,-0.177 C -2.234,-0.3 -2.267,-0.706 -2.437,-0.773 C -2.607,-0.84 -2.739,-0.952 -2.641,-1.246 C -2.543,-1.54 -2.148,-1.697 -2.148,-1.697 C -2.148,-1.697 -1.763,-1.975 -1.323,-2.095 C -0.884,-2.214 -0.646,-2.315 -0.199,-1.863 C 0.248,-1.41 0.232,-1.123 0.3,-0.802 C 0.367,-0.481 0,0 0,0" />
        </g>
      </g>
    </g>
    <g
       transform="matrix(12.87539,0,0,-12.87539,-9118.6618,1007.7327)"
       style="fill:none;stroke:none"
       id="q119">
      <g
         transform="translate(727.8465,63.6918)"
         id="xfrm120">
        <path
           d="M 0,0 C -0.215,-2.115 -0.684,-4.114 -0.917,-6.229 L -1.706,-11.586 C -1.69,-11.934 -1.368,-12.279 -1.669,-12.603 C -2.394,-12.954 -3.458,-12.927 -4.174,-12.584 L -4.489,-12.1 C -5.136,-9.969 -5.783,-7.822 -6.431,-5.69 L -6.547,-5.942 L -7.363,-13.116 C -7.422,-13.447 -7.727,-13.555 -8.004,-13.637 C -8.734,-13.701 -9.739,-13.8 -10.169,-13.161 L -10.227,-12.646 C -9.835,-8.67 -9.292,-4.747 -8.587,-0.921 C -8.535,-0.663 -8.385,-0.397 -8.125,-0.315 C -7.165,-0.186 -6.19,-0.449 -5.419,-0.919 C -4.71,-2.326 -4.189,-3.787 -3.759,-5.287 L -3.651,-5.141 L -2.765,-0.181 C -2.694,0.116 -2.488,0.383 -2.168,0.446 C -1.453,0.465 -0.398,0.682 0,0"
           style="fill:#ffffff;fill-rule:nonzero;stroke:none"
           id="path2971" />
      </g>
    </g>
    <g
       transform="matrix(12.87539,0,0,-12.87539,-9118.6618,1007.7327)"
       style="fill:none;stroke:none"
       id="q121">
      <g
         transform="translate(746.0662,62.9317)"
         id="xfrm122">
        <path
           d="M 0,0 C -0.342,-2.232 -1.319,-4.364 -3.351,-5.622 C -2.537,-6.883 -1.487,-8.058 -0.793,-9.357 C -0.823,-10.161 -1.731,-10.505 -2.303,-10.834 C -3.089,-11.138 -3.263,-10.131 -3.687,-9.764 L -5.269,-7.401 L -5.381,-7.654 C -5.449,-8.531 -5.512,-9.394 -5.739,-10.189 C -6.099,-10.571 -6.801,-10.332 -7.304,-10.313 C -7.633,-10.195 -8.105,-10.253 -8.244,-9.837 L -7.045,-1.372 C -6.92,-0.907 -6.945,-0.391 -6.659,-0.008 C -5.997,0.243 -4.996,0.233 -4.373,-0.125 C -4.113,-0.815 -4.514,-1.484 -4.526,-2.197 C -4.603,-2.587 -4.736,-2.961 -4.751,-3.386 L -4.654,-3.496 C -3.09,-2.674 -2.815,-1.002 -2.247,0.416 C -1.884,0.663 -1.347,0.505 -0.939,0.476 C -0.579,0.4 -0.218,0.296 0,0"
           style="fill:#ffffff;fill-rule:nonzero;stroke:none"
           id="path2975" />
      </g>
    </g>
    <g
       transform="matrix(12.87539,0,0,-12.87539,-9118.6618,1007.7327)"
       style="fill:none;stroke:none"
       id="q123">
      <g
         transform="translate(738.0056,61.5207)"
         id="xfrm124">
        <path
           d="M 0,0 C 0.23,-0.738 0.387,-1.715 -0.09,-2.394 C -0.61,-2.858 -1.356,-2.939 -2,-2.793 C -2.461,-2.455 -1.742,-1.526 -2.534,-1.603 C -3.404,-2.588 -3.499,-3.916 -3.701,-5.202 C -3.631,-5.749 -3.808,-6.424 -3.35,-6.79 C -2.513,-6.731 -2.856,-5.747 -2.282,-5.372 C -1.768,-5.031 -1.002,-4.863 -0.425,-5.189 C -0.119,-5.593 -0.28,-6.252 -0.36,-6.72 C -0.674,-7.833 -1.359,-9.018 -2.543,-9.475 C -3.143,-9.727 -3.873,-9.849 -4.55,-9.658 C -6.526,-8.611 -6.407,-6.252 -6.242,-4.193 C -5.844,-2.086 -4.854,0.423 -2.437,0.941 C -1.519,1.18 -0.439,0.927 0,0"
           style="fill:#ffffff;fill-rule:nonzero;stroke:none"
           id="path2979" />
      </g>
    </g>
    <g
       transform="matrix(12.87539,0,0,-12.87539,-9118.6618,1007.7327)"
       style="fill:none;stroke:none"
       id="q125">
      <g
         transform="translate(731.7307,61.1783)"
         id="xfrm126">
        <path
           d="M 0,0 L -0.122,-1.115 L -1.376,-9.517 C -2.033,-10.083 -3.21,-9.902 -3.925,-9.526 C -4.351,-9.103 -3.961,-8.511 -4.049,-7.961 C -3.65,-5.275 -3.324,-2.506 -2.649,0.178 C -2.099,0.703 -1.118,0.605 -0.381,0.411 C -0.234,0.313 0.004,0.215 0,0"
           style="fill:#ffffff;fill-rule:nonzero;stroke:none"
           id="path2983" />
      </g>
    </g>
  </g>
</svg>
